PathFileType	4	(X/Y/Z)	./resultDataOpenSim/trcMotMarkerGrf/sub06/qtm-04-08.trc
DataRate	CameraRate	NumFrames	NumMarkers	Units	OrigDataRate	OrigDataStartFrame	OrigNumFrames
250.000000	250.000000	14	24	m	250.000000	1	531
Frame#	Time	L.Toe.Tip			R.Toe.Tip			L.Ankle.Lat			R.Ankle.Lat			L.Ankle.Med			R.Ankle.Med			L.Heel			R.Heel			L.Knee.Lat			R.Knee.Lat			L.Knee.Med			R.Knee.Med			L.Thigh.Upper			R.Thigh.Upper			L.ASIS			R.ASIS			V.Sacral			L.Acromium			R.Acromium			C7			L.Elbow			R.Elbow			L.Wrist.Lat			R.Wrist.Lat
		X1	Y1	Z1	X2	Y2	Z2	X3	Y3	Z3	X4	Y4	Z4	X5	Y5	Z5	X6	Y6	Z6	X7	Y7	Z7	X8	Y8	Z8	X9	Y9	Z9	X10	Y10	Z10	X11	Y11	Z11	X12	Y12	Z12	X13	Y13	Z13	X14	Y14	Z14	X15	Y15	Z15	X16	Y16	Z16	X17	Y17	Z17	X18	Y18	Z18	X19	Y19	Z19	X20	Y20	Z20	X21	Y21	Z21	X22	Y22	Z22	X23	Y23	Z23	X24	Y24	Z24

1	0	-1.5473101	0.032550791	-0.044456746	-0.996663	0.099675488	0.14698124	-1.6681611	0.077188914	-0.052762751	-1.1265967	0.082805278	0.15139096	-1.6534604	0.090712169	0.030030307	-1.1094754	0.11424962	0.069743734	NaN	NaN	NaN	-1.1641513	0.045355273	0.077052612	-1.510975	0.41617878	-0.082002149	-1.2146176	0.46370281	0.16600836	-1.5180425	0.42009229	0.038841134	-1.221008	0.4441933	0.038365254	-1.4291653	0.79708287	-0.15261468	-1.4001467	0.78830083	0.19273426	-1.3452155	0.83732438	-0.11643959	-1.3190133	0.84021948	0.12655111	-1.5107595	0.91626103	0.030929161	-1.3641038	1.3258281	-0.16641262	-1.3826481	1.3097928	0.19597767	-1.4491934	1.3575207	0.012696438	-1.364486	1.0031831	-0.23616691	NaN	NaN	NaN	-1.1602232	0.86242306	-0.20176987	-1.3988015	0.80795619	0.29519247
2	0.004	-1.5472689	0.032516003	-0.044549963	-0.98241166	0.10349919	0.14589698	-1.6678093	0.077641619	-0.053027812	-1.112695	0.083752693	0.15188031	-1.6546179	0.090777639	0.030384324	-1.0964634	0.11533846	0.069941373	NaN	NaN	NaN	-1.1497362	0.045501312	0.07771635	-1.5082683	0.41551995	-0.082066061	-1.2083376	0.4623534	0.16541328	-1.5152227	0.41906227	0.038716962	-1.2142154	0.44301041	0.037297627	-1.4246683	0.79573221	-0.15240992	-1.3946885	0.78650211	0.19269738	-1.3403667	0.83583489	-0.11660086	-1.3128265	0.838658	0.12649523	-1.5047795	0.91476871	0.031917292	-1.3585814	1.3243544	-0.16607671	-1.377205	1.3082316	0.19632146	-1.4437581	1.3561965	0.012975398	-1.3566511	1.0015945	-0.23568373	NaN	NaN	NaN	-1.1512653	0.8629072	-0.19988747	-1.3956527	0.80602661	0.29538911
3	0.008	-1.5472508	0.032481095	-0.044610276	-0.96877404	0.10703839	0.14510763	-1.6674575	0.078109217	-0.053267731	-1.0991256	0.084707544	0.15223663	-1.6567505	0.090691013	0.031071276	-1.0837459	0.11642021	0.070063824	NaN	NaN	NaN	-1.1356338	0.045659175	0.07832446	-1.5054625	0.41482536	-0.082147418	-1.2015999	0.4611611	0.16492631	-1.5123287	0.41804275	0.038582689	-1.2074223	0.44188378	0.036238058	-1.4201558	0.79439688	-0.15214435	-1.3892673	0.78466465	0.19260569	-1.3354115	0.83431652	-0.11674899	-1.3066771	0.83712134	0.12644174	-1.4988524	0.9132931	0.032857436	-1.3530559	1.3228732	-0.16574743	-1.371749	1.306669	0.19669698	-1.4382861	1.3548773	0.013332061	-1.3488466	1.0000253	-0.23529399	NaN	NaN	NaN	-1.1423895	0.86337134	-0.19801674	-1.3924444	0.80408617	0.2955996
4	0.012	-1.5472542	0.032447021	-0.044638063	-0.95598293	0.11022972	0.14462198	-1.6671073	0.078600853	-0.053467939	-1.0860865	0.085671002	0.15241532	-1.6592847	0.09059597	0.031886167	-1.0714923	0.11747124	0.070056783	NaN	NaN	NaN	-1.1220774	0.045821098	0.078798172	-1.5024985	0.41407673	-0.082246159	-1.1944169	0.46014969	0.16454376	-1.5092591	0.41703861	0.038425791	-1.2006065	0.44084819	0.035208313	-1.4156116	0.79306662	-0.15182442	-1.3838317	0.78279042	0.19247279	-1.3303184	0.83278246	-0.11687825	-1.3005491	0.83560528	0.12639766	-1.4929929	0.91184575	0.033710661	-1.3475227	1.3213739	-0.1654234	-1.3662679	1.3050906	0.19711535	-1.4327637	1.3535498	0.013758761	-1.3410617	0.99846795	-0.23495952	NaN	NaN	NaN	-1.1336117	0.86381661	-0.19615218	-1.3891641	0.80213838	0.29583724
5	0.016	-1.5472611	0.032416517	-0.04465565	-0.94397307	0.11316073	0.14426437	-1.6667481	0.079119249	-0.053635267	-1.0736619	0.086615986	0.15242289	-1.660697	0.090804599	0.032289137	-1.0597623	0.11845769	0.069895757	NaN	NaN	NaN	-1.1091712	0.045961385	0.079072271	-1.4993879	0.41328621	-0.082353526	-1.1871373	0.45925187	0.16418269	-1.5059606	0.4160447	0.038240531	-1.193753	0.43991541	0.03423782	-1.4110302	0.79172405	-0.15150469	-1.3781451	0.78093582	0.19239539	-1.3251576	0.83126182	-0.1170099	-1.2944241	0.83409497	0.12636181	-1.4871859	0.91042913	0.034460236	-1.341986	1.3198564	-0.16509171	-1.3607536	1.3034824	0.19756821	-1.4272158	1.3521982	0.014178651	-1.3332764	0.99690148	-0.23456512	NaN	NaN	NaN	-1.1249116	0.86424943	-0.19427802	-1.3858248	0.80019331	0.29610811
6	0.02	-1.5472579	0.032392758	-0.044681343	-0.93261315	0.1159099	0.14390168	-1.6663354	0.079665485	-0.053796652	-1.0618653	0.087490362	0.15224728	-1.6603663	0.09142442	0.032060137	-1.0485399	0.11935972	0.069579678	NaN	NaN	NaN	-1.0968827	0.046062546	0.079103073	-1.4961716	0.41247966	-0.082464499	-1.179979	0.45840898	0.16379291	-1.5024533	0.41505339	0.038033416	-1.1868574	0.43907978	0.033344951	-1.4064023	0.79036238	-0.15122101	-1.3717148	0.7792036	0.19253476	-1.3199965	0.82977054	-0.11714458	-1.2882919	0.8325892	0.12631994	-1.4814028	0.90903633	0.035120387	-1.336447	1.3183303	-0.16473683	-1.3551963	1.3018435	0.19804386	-1.4216602	1.3508266	0.014560951	-1.3254859	0.99531684	-0.23405647	NaN	NaN	NaN	-1.1162646	0.86466271	-0.1923819	-1.382418	0.79825391	0.29640839
7	0.024	-1.5472405	0.03237589	-0.044720155	-0.92181933	0.11848453	0.14349701	-1.6658018	0.080241359	-0.053978822	-1.0506765	0.088243281	0.15187444	-1.658939	0.092289749	0.031450855	-1.037776	0.12017778	0.069122249	NaN	NaN	NaN	-1.0851398	0.046124539	0.078862656	-1.492863	0.41167396	-0.082577432	-1.1729328	0.45759869	0.16338261	-1.4988033	0.41406452	0.037818173	-1.1799206	0.43832958	0.032534408	-1.4017143	0.78898399	-0.15096009	-1.3641692	0.77767382	0.19300011	-1.3147878	0.82832312	-0.11719099	-1.2821368	0.83110008	0.12625927	-1.4756311	0.90766228	0.035720784	-1.3309011	1.3168017	-0.16435396	-1.3495999	1.3001916	0.19853595	-1.4160844	1.3494562	0.014960332	-1.3177148	0.9937293	-0.23348435	NaN	NaN	NaN	-1.1076673	0.86504427	-0.19046361	-1.3789184	0.79632623	0.29673015
8	0.028	-1.5472005	0.032362546	-0.044770212	-0.91154015	0.12082669	0.14305123	-1.6651228	0.080854515	-0.054183073	-1.0400517	0.088840833	0.15132569	-1.6572861	0.093201137	0.030814841	-1.0274238	0.12091331	0.068538591	NaN	NaN	NaN	-1.0739068	0.046143244	0.078360944	-1.4894479	0.41087238	-0.082690684	-1.1659545	0.45681041	0.162966	-1.4950756	0.41308582	0.037605211	-1.1729411	0.43765563	0.031804633	-1.3969538	0.78759294	-0.1506901	-1.355882	0.77629578	0.19368486	-1.3094076	0.82692852	-0.11702634	-1.2759369	0.82963899	0.12618019	-1.4698738	0.90631119	0.03628456	-1.3253412	1.3152698	-0.16395018	-1.3439804	1.2985534	0.19904279	-1.4104743	1.3480958	0.015407653	-1.309991	0.99216329	-0.23292995	NaN	NaN	NaN	-1.0991352	0.86539152	-0.18853224	-1.3753059	0.79442284	0.29707113
9	0.032	-1.5471177	0.03234931	-0.044834081	-0.90173092	0.12283801	0.14255749	-1.664427	0.081522616	-0.05436577	-1.0299445	0.08926198	0.15063481	-1.6558768	0.094077579	0.030344096	-1.0174802	0.1215448	0.067833192	NaN	NaN	NaN	-1.0631973	0.046099321	0.077638502	-1.4859286	0.41007198	-0.082804032	-1.1590367	0.45603235	0.16254105	-1.4912973	0.41213145	0.037398175	-1.1659209	0.43704888	0.031158464	-1.3921137	0.78619412	-0.15040451	-1.34781	0.7749148	0.19432151	-1.3038426	0.82555062	-0.11669606	-1.2696782	0.82821084	0.12609167	-1.464132	0.90499457	0.03681888	-1.3197642	1.3137349	-0.1635347	-1.33835	1.2969448	0.19956436	-1.4048378	1.3467344	0.015846285	-1.3023194	0.99063128	-0.23241808	NaN	NaN	NaN	-1.0906897	0.86571172	-0.18659935	-1.37158	0.79255095	0.29743677
10	0.036	-1.546986	0.032334211	-0.044913713	-0.89237517	0.12442944	0.14200039	-1.6639636	0.082264139	-0.054459928	-1.0203349	0.08948768	0.1498081	-1.6548036	0.094925006	0.030050417	-1.007994	0.12202835	0.067002894	NaN	NaN	NaN	-1.053044	0.045973918	0.076728856	-1.4823378	0.40927792	-0.082923955	-1.1521515	0.45526236	0.16210925	-1.4874396	0.41121922	0.037192652	-1.1588688	0.43649897	0.030602319	-1.3871926	0.78479516	-0.15012786	-1.3405088	0.77344491	0.19474757	-1.2982907	0.82408968	-0.11651641	-1.2633676	0.82681318	0.12599638	-1.4584029	0.90372128	0.037307466	-1.3141706	1.3122028	-0.16311201	-1.3327123	1.2953647	0.2001022	-1.3991828	1.3453662	0.016237669	-1.2946916	0.98913282	-0.23192174	NaN	NaN	NaN	-1.0823477	0.86601405	-0.18467211	-1.3677593	0.79070638	0.29782947
11	0.04	-1.5468664	0.03231642	-0.04498387	-0.88350125	0.12556121	0.14136825	-1.6637684	0.083085204	-0.054466295	-1.0112265	0.089499182	0.14883503	-1.6539627	0.09576038	0.029854918	-0.99901515	0.1223205	0.066049804	NaN	NaN	NaN	-1.0434693	0.045759902	0.075651779	-1.4787047	0.40851003	-0.083059789	-1.1452323	0.45450957	0.16169162	-1.4834009	0.41036373	0.036969559	-1.1517918	0.43600281	0.030127405	-1.3821938	0.78340678	-0.14988452	-1.3337506	0.77194475	0.19501074	-1.2929819	0.8224601	-0.11682972	-1.2570181	0.82543799	0.1258858	-1.4526909	0.90249172	0.037711554	-1.3085567	1.3106813	-0.1626817	-1.3270627	1.2938036	0.20065753	-1.3934938	1.3440033	0.016644287	-1.2871057	0.98766455	-0.23141585	NaN	NaN	NaN	-1.0741148	0.8663018	-0.18275498	-1.3638541	0.78888046	0.29824176
12	0.044	-1.5468693	0.032297507	-0.04499537	-0.87513281	0.12622711	0.1406461	-1.6635036	0.083979988	-0.054490551	-1.0026194	0.089291586	0.14772902	-1.653186	0.096600833	0.029680562	-0.99054959	0.1223931	0.064991797	NaN	NaN	NaN	-1.0344866	0.045452234	0.074437751	-1.47503	0.40778799	-0.083214311	-1.1382137	0.45378314	0.16131135	-1.4790819	0.40956315	0.036709473	-1.1446903	0.43556794	0.029709362	-1.3771186	0.78204234	-0.14966427	-1.3270775	0.77051942	0.19523203	-1.2878827	0.82071998	-0.11757499	-1.2506292	0.82407967	0.12575205	-1.4470042	0.9013033	0.037990156	-1.3029122	1.3091788	-0.1622373	-1.3213859	1.2922533	0.20122895	-1.3877551	1.3426578	0.017138919	-1.2795662	0.98622434	-0.23089381	NaN	NaN	NaN	-1.0659875	0.86657073	-0.18085657	-1.3598489	0.78707217	0.2986663
13	0.048	-1.5470086	0.032281675	-0.044944029	-0.86724511	0.12642297	0.13980681	-1.6628745	0.084941916	-0.054625498	-0.99449875	0.088885076	0.14652511	-1.6523308	0.097482668	0.029486549	-0.98258092	0.12223055	0.063857311	NaN	NaN	NaN	-1.0261156	0.045039399	0.073134596	-1.4712923	0.40711405	-0.083388287	-1.1310902	0.45308289	0.1609638	-1.474523	0.40879643	0.036422587	-1.1375609	0.43520132	0.029335918	-1.3719601	0.78071269	-0.14942569	-1.3202754	0.76922549	0.19547783	-1.282693	0.81906471	-0.11827539	-1.2441882	0.82274356	0.12559591	-1.4413412	0.90015701	0.038123051	-1.2972278	1.3077057	-0.16177121	-1.3156616	1.2907116	0.20181441	-1.381978	1.3413284	0.017693767	-1.2720786	0.98481391	-0.2303593	NaN	NaN	NaN	-1.0579575	0.8668167	-0.17899056	-1.3557184	0.78529171	0.2991044
14	0.052	-1.5471363	0.032272938	-0.044902552	-0.85979526	0.12614898	0.13881665	-1.6619638	0.08596884	-0.054853056	-0.98684662	0.088318307	0.1452315	-1.6513578	0.098433988	0.029257811	-0.97511003	0.12182463	0.062666545	NaN	NaN	NaN	-1.0183803	0.044508186	0.071787758	-1.467463	0.40647599	-0.083587306	-1.1239347	0.45239339	0.16061588	-1.4698931	0.40804061	0.036143562	-1.1303952	0.43490165	0.02902126	-1.3667054	0.77942013	-0.14913384	-1.3133556	0.76807081	0.19575172	-1.2771885	0.81764277	-0.11856961	-1.2376843	0.8214424	0.12542149	-1.4356797	0.89905548	0.038138522	-1.2915002	1.3062728	-0.1612846	-1.309878	1.2891862	0.20241398	-1.3761873	1.3400121	0.018223206	-1.2646475	0.98343902	-0.22981411	NaN	NaN	NaN	-1.05001	0.86704352	-0.1771649	-1.351451	0.78354939	0.29955989
